<svg width="34" height="39" viewBox="0 0 34 39" fill="none" xmlns="http://www.w3.org/2000/svg">
<g clip-path="url(#clip0_1140_4903)">
<path d="M16.9231 34.3201C26.1635 34.3201 33.6542 26.7159 33.6542 17.3356C33.6542 7.95529 26.1635 0.351074 16.9231 0.351074C7.68283 0.351074 0.192078 7.95529 0.192078 17.3356C0.192078 26.7159 7.68283 34.3201 16.9231 34.3201Z" fill="#5F62E2"/>
<path d="M23.8384 30.7516L24.8565 28.9381L25.2407 30.8296C26.8542 29.1331 27.6418 28.2361 28.3525 26.3446L30.8305 27.6901L30.4655 24.1996L29.87 22.6786L31.5989 22.8541C31.0994 21.7036 30.5808 20.6311 29.9277 19.6561C30.5808 18.8566 31.0226 18.2521 30.965 16.9456C30.9265 16.1851 30.6768 15.4051 30.2158 14.9566C29.6588 14.4301 28.6791 13.5331 27.8915 13.7476C27.6802 13.8061 27.4689 13.9036 27.2576 14.0206L27.3345 10.4131L27.2768 10.1401C25.9514 6.76661 23.5887 4.52411 20.8994 3.43211C18.3446 2.39861 15.5209 2.39861 12.9661 3.43211C10.2768 4.52411 7.93333 6.74711 6.5887 10.1401L6.53107 10.4326L6.60791 14.0401C6.39661 13.9231 6.1661 13.8256 5.97401 13.7671C5.18644 13.5526 4.20678 14.4496 3.64971 14.9761C3.1887 15.4246 2.93898 16.1851 2.90056 16.9651C2.84293 18.2911 3.28474 18.8761 3.93785 19.6756C3.28474 20.6506 2.7661 21.7231 2.26666 22.8736L3.99548 22.6981L3.4 24.2191L3.03502 27.7096L5.51299 26.3641C6.20452 28.2556 7.0113 29.1526 8.62485 30.8491L9.00904 28.9576L10.0271 30.7711C10.0271 30.7711 10.0463 35.1781 13.6192 37.5376L13.4463 36.5821C13.4463 36.5821 15.1175 39.3511 20.3808 38.4346L19.67 37.5961C19.67 37.5961 21.1491 37.3231 22.4362 36.3091L21.3604 36.2701C22.8972 34.8271 23.6463 32.7211 23.8384 30.7516Z" fill="#081630"/>
<path d="M25.8746 15.1321C21.5717 10.8421 12.2938 10.8421 7.97174 15.1321L7.76044 18.8176C9.95027 17.1016 13.696 15.5611 16.9616 15.4636C20.2271 15.5416 23.896 17.1016 26.0859 18.8176L25.8746 15.1321Z" fill="#6E75E5"/>
<path d="M25.8746 15.132C24.7412 14.001 23.2429 13.1625 21.5909 12.6165C20.035 14.118 16.4045 16.0485 7.8949 16.536L7.76044 18.798C9.95027 17.082 13.696 15.5415 16.9616 15.444C20.2271 15.522 23.896 17.082 26.0859 18.798L25.8746 15.132Z" fill="#5658CB"/>
<path d="M25.3943 14.2547C25.1638 14.0207 24.9141 13.7867 24.6644 13.5722L24.7028 16.2827C22.4553 14.8592 19.4203 13.7867 16.9616 13.7672C14.5796 13.7282 11.3525 14.8982 9.14348 16.2827L9.18189 13.5137C8.93218 13.7282 8.68246 13.9427 8.45195 14.1962L8.29828 17.9402C10.3729 16.2242 13.8881 14.7032 16.9616 14.6057C20.035 14.6837 23.4734 16.2242 25.548 17.9012L25.3943 14.2547Z" fill="#081630"/>
<path d="M7.97175 13.299C12.7548 9.59395 21.1107 9.59395 25.8938 13.299L25.9514 10.5495C24.7605 7.62445 22.7243 5.69396 20.4 4.75796C18.191 3.86096 15.6938 3.86096 13.4847 4.75796C11.1412 5.69396 9.10508 7.62445 7.91412 10.5495L7.97175 13.299Z" fill="#6E75E5"/>
<path d="M7.97172 13.299C12.7548 9.59399 21.1107 9.59399 25.8938 13.299L25.9514 10.5495C25.0101 8.24849 23.5503 6.55199 21.8214 5.47949C20.131 7.52699 16.3661 9.98399 7.95251 11.271L7.97172 13.299Z" fill="#5658CB"/>
<path d="M21.0147 24.8821C20.7073 25.4281 20.2655 25.7011 19.5548 26.0131C20.5152 24.9601 20.1118 23.4391 20.035 23.2051C19.6508 22.7956 18.9209 22.4641 18.5751 22.3081C17.8068 22.5421 17.4226 22.9906 17.4226 22.9906L16.9039 23.5756L16.3853 22.9906C16.3853 22.9906 16.0011 22.5421 15.2327 22.3081C14.887 22.4446 14.157 22.7956 13.7729 23.2051C13.696 23.4391 13.3695 24.9601 14.3299 26.0131C13.6192 25.7011 13.1005 25.4281 12.7932 24.8821L11.3717 26.3251C10.7186 30.6541 11.6214 36.1141 17.096 35.9581C17.9028 35.6071 18.7672 35.0416 19.3051 34.1251C19.3051 34.1251 19.7661 34.4176 20.0158 35.1001C22.5898 33.3646 22.8011 29.1526 22.3785 26.3056L21.0147 24.8821Z" fill="#FEDBB8"/>
<path d="M19.7469 25.7986C20.4768 24.7651 20.1311 23.4196 20.0542 23.2051C19.67 22.7956 18.9401 22.4641 18.5943 22.3081C17.826 22.5421 17.4418 22.9906 17.4418 22.9906L17.2113 23.2441C19.0361 23.5561 20.2463 24.5896 19.7469 25.7986ZM16.5774 23.1661L16.4237 22.9906C16.4237 22.9906 16.0395 22.5421 15.2712 22.3081C14.9254 22.4446 14.1955 22.7956 13.8113 23.2051C13.7921 23.2441 13.7729 23.3416 13.7537 23.4781C14.7141 23.1856 15.6938 23.0881 16.5774 23.1661Z" fill="#E0B497"/>
<path d="M12.3706 25.3501L11.4293 26.3251C10.7762 30.6541 11.6791 36.1141 17.1536 35.9581C17.9604 35.6071 18.8248 35.0416 19.3627 34.1251C19.3627 34.1251 19.8237 34.4176 20.0734 35.1001C20.6113 34.7296 21.0531 34.2616 21.3988 33.7156C11.8904 34.4371 12.1209 27.3586 12.3706 25.3501Z" fill="#E0B497"/>
<path d="M12.409 23.2247C12.409 23.1467 12.409 23.0492 12.409 22.9712C12.9661 22.0352 13.9842 21.2747 14.983 20.9042C15.0983 20.8847 15.2328 20.8847 15.3672 20.8847C15.5017 19.7732 15.2712 18.3107 15.1367 18.2522C14.7525 18.0572 13.0237 17.8622 12.4859 17.7842C10.9491 18.3497 9.54688 19.1297 8.45196 20.0267C8.27908 20.1632 8.08699 20.2607 7.8949 20.2997C7.95252 21.2552 8.14462 22.6592 8.93219 23.0297C10.0079 23.5562 11.7367 23.3417 12.409 23.2247Z" fill="#3A4559"/>
<path d="M12.6395 17.823L12.4666 17.8035C12.0248 17.9595 11.6022 18.135 11.1988 18.33L8.64404 22.854C8.72088 22.932 8.81692 22.9905 8.91297 23.0295C9.10506 23.127 9.33557 23.1855 9.56608 23.244L12.6395 17.823Z" fill="#6A7486"/>
<path d="M13.6961 17.9596C13.5232 17.9401 13.3311 17.9011 13.1582 17.8816L10.0656 23.3221C10.2576 23.3416 10.4305 23.3611 10.6226 23.3611L13.6961 17.9596Z" fill="#6A7486"/>
<path d="M14.7333 18.1351C14.5796 18.0961 14.4068 18.0766 14.2147 18.0376L11.1989 23.3611C11.4102 23.3416 11.6215 23.3416 11.7943 23.3221L14.7333 18.1351Z" fill="#6A7486"/>
<path d="M5.28246 17.979C5.18642 17.6475 5.18642 17.5695 5.18642 17.238C4.97512 17.4525 4.78303 17.7255 4.62935 18.0375C4.61014 17.4525 4.7254 16.7505 5.148 16.302L6.24291 15.444C5.93557 15.2685 5.60901 15.1515 5.49376 15.21C5.18642 15.405 4.84065 15.6975 4.57173 15.951C4.16834 16.341 4.14913 17.6865 4.49489 18.1155L4.80223 18.525C4.95591 18.33 5.12879 18.1545 5.28246 17.979Z" fill="#FEDBB8"/>
<path d="M5.28248 17.9791C5.18644 17.6476 5.18644 17.5696 5.18644 17.2381C4.97514 17.4526 4.78305 17.7256 4.62938 18.0376C4.61017 17.7646 4.64858 17.4526 4.70621 17.1601C4.57175 17.2186 4.41808 17.2576 4.2644 17.2966C4.28361 17.6476 4.36045 17.9791 4.51412 18.1546L4.80226 18.5251C4.95593 18.3301 5.12881 18.1546 5.28248 17.9791ZM5.93559 15.7171L6.26214 15.4636C6.14689 15.4051 6.03164 15.3466 5.91638 15.2881C5.93559 15.4246 5.93559 15.5611 5.93559 15.7171Z" fill="#E0B497"/>
<path d="M6.49262 16.9066L6.51183 16.5361L5.89714 16.7701C5.87793 17.1601 5.85872 17.1991 5.91635 17.3746C6.10844 17.2186 6.30053 17.0626 6.49262 16.9066Z" fill="#E0B497"/>
<path d="M17.0769 20.5337H16.7887C16.7887 20.8652 16.7503 21.1772 16.6735 21.4502C16.7695 21.5087 16.8656 21.5477 16.9232 21.5867C16.9808 21.5477 17.0769 21.4892 17.1729 21.4502C17.1153 21.1772 17.0769 20.8652 17.0769 20.5337Z" fill="#E0B497"/>
<path d="M21.4373 23.2247C22.1288 23.3417 23.8384 23.5367 24.9525 23.0297C25.7209 22.6592 25.9322 21.2552 25.9898 20.2997C25.7977 20.2607 25.6056 20.1827 25.4328 20.0267C24.3378 19.1297 22.9356 18.3497 21.3989 17.7842C20.861 17.8427 19.1322 18.0572 18.748 18.2522C18.6136 18.3302 18.383 19.7732 18.5175 20.8847C18.652 20.8652 18.7672 20.8652 18.9017 20.9042C19.9006 21.2747 20.9186 22.0352 21.4757 22.9712C21.4373 23.0492 21.4373 23.1467 21.4373 23.2247Z" fill="#3A4559"/>
<path d="M22.8588 18.4276C22.5706 18.2911 22.2633 18.1546 21.9559 18.0181L19.9774 21.4891C20.2656 21.6841 20.5153 21.8986 20.765 22.1326L22.8588 18.4276Z" fill="#6A7486"/>
<path d="M23.7424 18.8956C23.6079 18.8176 23.4542 18.7396 23.3005 18.6616L21.1107 22.5226C21.226 22.6591 21.3412 22.8151 21.4181 22.9711L23.7424 18.8956Z" fill="#6A7486"/>
<path d="M21.8215 23.2832C21.9751 23.3027 22.1672 23.3222 22.3593 23.3417L24.5876 19.4222C24.4531 19.3247 24.3186 19.2467 24.165 19.1492L21.8215 23.2832Z" fill="#6A7486"/>
<path d="M27.93 17.3746C27.7379 17.2186 27.5458 17.0431 27.3537 16.8871L27.3345 16.5166L27.9492 16.7701C27.9684 17.1601 27.9876 17.1991 27.93 17.3746Z" fill="#E0B497"/>
<path d="M29.0441 18.525C28.8904 18.33 28.7175 18.1545 28.5446 17.979C28.6407 17.6475 28.6599 17.5695 28.6407 17.238C28.852 17.4525 29.0441 17.7255 29.1977 18.0375C29.2169 17.4525 29.1017 16.7505 28.6791 16.302L27.5842 15.444C27.8915 15.2685 28.2181 15.1515 28.3333 15.21C28.6407 15.405 28.9864 15.6975 29.2554 15.951C29.6587 16.341 29.678 17.6865 29.3322 18.1155L29.0441 18.525Z" fill="#FEDBB8"/>
<path d="M29.0441 18.5251C28.8904 18.3301 28.7175 18.1546 28.5446 17.9791C28.6407 17.6476 28.6599 17.5696 28.6407 17.2381C28.852 17.4526 29.0441 17.7256 29.1977 18.0376C29.1977 17.8231 29.1977 17.5891 29.1593 17.3551C29.2746 17.4331 29.3898 17.4916 29.5243 17.5501C29.4859 17.8036 29.409 18.0181 29.313 18.1351L29.0441 18.5251ZM28.1028 15.8536L27.6034 15.4636C27.7571 15.3856 27.8915 15.3076 28.026 15.2686C28.026 15.4441 28.0452 15.6391 28.1028 15.8536Z" fill="#E0B497"/>
<path d="M16.9231 16.8481C16.5005 16.8676 16.0972 16.9066 15.6746 16.9651C16.2124 17.1991 16.539 17.9986 16.6734 18.9151H17.1344C17.2881 17.9791 17.5955 17.1991 18.1333 16.9651C17.7491 16.9261 17.3457 16.8871 16.9231 16.8481Z" fill="#E0B497"/>
<path d="M16.6927 25.0576L16.4237 23.8291C16.3853 23.6341 16.2701 23.4781 16.0972 23.3806L15.6746 23.1466C15.4825 23.0491 15.2712 23.0296 15.0791 23.1271L15.0023 23.1661C14.7141 23.3026 14.5797 23.6146 14.6373 23.9266L14.7141 24.3166L14.791 24.2386C14.9447 24.0631 15.1559 24.0046 15.3865 24.0436L15.6746 24.1021C15.8283 24.1216 15.9627 24.1996 16.0588 24.3166L16.6927 25.0576ZM17.1537 25.0576L17.4226 23.8291C17.461 23.6341 17.5763 23.4781 17.7492 23.3806L18.1718 23.1466C18.3639 23.0491 18.5752 23.0296 18.7672 23.1271L18.8441 23.1661C19.1322 23.3026 19.2667 23.6146 19.2091 23.9266L19.1322 24.3166L19.0554 24.2386C18.9017 24.0631 18.6904 24.0046 18.4599 24.0436L18.1718 24.1021C18.0181 24.1216 17.8836 24.1996 17.7876 24.3166L17.1537 25.0576Z" fill="#081630"/>
<path d="M10.9299 31.59C10.9491 31.59 14.5412 29.055 19.4587 28.6455C21.1876 29.2695 22.4169 30.654 23.1661 31.98L21.9751 32.682C21.3412 31.59 20.5729 30.576 19.4011 30.069C14.9254 30.4785 11.5638 33.0915 11.5638 33.111L10.9299 31.59Z" fill="#081630"/>
<path d="M16.9231 5.03101C17.4418 5.03101 17.9412 5.16751 18.3638 5.38201C18.8056 5.59651 19.1706 5.88901 19.4395 6.22051C18.5943 6.10351 17.7683 6.00601 16.9231 6.00601C16.0779 6.00601 15.2519 6.10351 14.4067 6.22051C14.6949 5.88901 15.0598 5.59651 15.4824 5.38201C15.9243 5.16751 16.4045 5.05051 16.9231 5.03101ZM19.4395 8.85301C19.1514 9.12601 18.7864 9.34051 18.3638 9.51601C17.9412 9.67201 17.4418 9.76951 16.9231 9.76951C16.4045 9.76951 15.9243 9.67201 15.4824 9.51601C15.0598 9.36001 14.6757 9.12601 14.4067 8.85301C15.2519 8.81401 16.0779 8.79451 16.9231 8.79451C17.7683 8.79451 18.5943 8.81401 19.4395 8.85301Z" fill="#081630"/>
<path d="M14.5797 7.2344C14.522 7.0394 14.3876 6.9614 14.2147 6.9809C13.9458 7.0004 13.8113 7.2344 13.8689 7.5659C13.9073 7.8974 14.0994 8.0924 14.3491 8.0534C14.4644 8.0339 14.5604 7.9754 14.6181 7.8974C14.6565 7.8389 14.6565 7.7999 14.6565 7.7219C14.8102 7.7219 14.9446 7.7414 15.0983 7.7414C15.0791 7.9169 15.0407 8.0339 14.9446 8.1314C14.8294 8.2874 14.6373 8.3849 14.3876 8.4044C14.1378 8.4239 13.9073 8.3849 13.7537 8.2484C13.5808 8.1119 13.4655 7.8779 13.4271 7.6049C13.3887 7.3319 13.4463 7.0784 13.6 6.8834C13.7345 6.7274 13.9458 6.6104 14.2147 6.5909C14.5028 6.5519 14.7333 6.6299 14.887 6.8054C14.9638 6.8834 15.0023 6.9614 15.0407 7.0784C14.8678 7.1564 14.7141 7.1954 14.5797 7.2344Z" fill="#081630"/>
<path d="M16.9424 7.39041C16.9424 7.93641 16.5966 8.30691 16.0972 8.32641C15.5977 8.34591 15.252 8.01441 15.2136 7.44891C15.1751 6.90291 15.5017 6.51291 16.0588 6.49341C16.5966 6.47391 16.9424 6.84441 16.9424 7.39041ZM16.5006 7.39041C16.5006 7.05891 16.3277 6.84441 16.0588 6.86391C15.7898 6.86391 15.6362 7.09791 15.6554 7.42941C15.6746 7.76091 15.8475 7.97541 16.0972 7.95591C16.3469 7.93641 16.5006 7.74141 16.5006 7.39041Z" fill="#081630"/>
<path d="M17.1729 6.82494C17.1729 6.68844 17.1729 6.61044 17.1537 6.51294C17.2497 6.51294 17.3073 6.51294 17.4802 6.53244C17.6339 6.53244 17.7876 6.53244 17.9412 6.55194C18.2102 6.57144 18.4215 6.64944 18.5751 6.78594C18.7288 6.94194 18.7864 7.17594 18.7672 7.44894C18.748 7.74144 18.652 7.95594 18.4791 8.11194C18.3254 8.24844 18.1333 8.30694 17.8836 8.28744C17.7299 8.28744 17.5955 8.26794 17.4418 8.26794C17.2881 8.26794 17.2305 8.26794 17.1345 8.26794C17.1537 8.17044 17.1537 8.11194 17.1537 7.95594C17.1729 7.58544 17.1729 7.21494 17.1729 6.82494ZM17.8644 7.91694C17.9989 7.91694 18.0949 7.89744 18.1717 7.81944C18.2678 7.74144 18.3254 7.60494 18.3254 7.42944C18.3446 7.25394 18.3062 7.11744 18.2294 7.03944C18.1525 6.96144 18.0565 6.92244 17.9028 6.92244C17.8068 6.92244 17.7107 6.92244 17.6147 6.90294C17.5955 7.23444 17.5955 7.56594 17.5763 7.91694C17.6723 7.91694 17.7684 7.91694 17.8644 7.91694Z" fill="#081630"/>
<path d="M20.2079 8.52135C20.1118 8.50185 20.0542 8.48235 19.8621 8.46285C19.6508 8.44335 19.4203 8.40435 19.209 8.38485C19.0553 8.36535 18.9977 8.36535 18.9017 8.36535C18.9209 8.28735 18.9401 8.20935 18.9401 8.05335C18.9785 7.68285 18.9977 7.29285 19.0361 6.92235C19.0553 6.78585 19.0553 6.72735 19.0361 6.61035C19.1322 6.62985 19.1898 6.62985 19.3627 6.64935C19.5932 6.66885 19.8237 6.70785 20.0734 6.72735C20.2271 6.74685 20.3039 6.74685 20.4 6.76635C20.3808 6.90285 20.3616 7.01985 20.3424 7.15635C20.2463 7.13685 20.1695 7.11735 20.0158 7.09785C19.8237 7.07835 19.6316 7.05885 19.4587 7.03935C19.4395 7.13685 19.4395 7.23435 19.4203 7.35135C19.574 7.37085 19.7277 7.39035 19.8813 7.40985C20.0158 7.42935 20.0734 7.42935 20.2079 7.42935C20.1887 7.56585 20.1695 7.68285 20.1503 7.81935C20.0542 7.79985 19.9774 7.78035 19.8429 7.76085C19.6892 7.74135 19.5356 7.72185 19.3819 7.70235C19.3627 7.81935 19.3627 7.93635 19.3435 8.05335C19.5164 8.07285 19.7085 8.09235 19.8813 8.11185C20.035 8.13135 20.1311 8.15085 20.2271 8.15085C20.2271 8.26785 20.2271 8.38485 20.2079 8.52135Z" fill="#081630"/>
</g>
<defs>
<clipPath id="clip0_1140_4903">
<rect width="34" height="39" fill="white"/>
</clipPath>
</defs>
</svg>
